<?xml version="1.0" encoding="UTF-8"?>
<svg width="24px" height="20px" viewBox="0 0 24 20" version="1.1" xmlns="http://www.w3.org/2000/svg" xmlns:xlink="http://www.w3.org/1999/xlink">
    <!-- Generator: Sketch 47.1 (45422) - http://www.bohemiancoding.com/sketch -->
    <title>envelope</title>
    <desc>Created with Sketch.</desc>
    <defs></defs>
    <g id="Page-1" stroke="none" stroke-width="1" fill="none" fill-rule="evenodd">
        <g id="Homepage" transform="translate(-392.000000, -3231.000000)" fill-rule="nonzero" fill="#FFFFFF">
            <g id="get-in-touch" transform="translate(269.000000, 3006.000000)">
                <g id="envelope" transform="translate(123.000000, 225.000000)">
                    <path d="M2.30184375,5.80026972 C2.60521875,6.01264881 3.51970312,6.64341518 5.04534375,7.6922433 C6.57103125,8.74107143 7.7398125,9.54864211 8.55173437,10.1150019 C8.6409375,10.1770833 8.83045312,10.312035 9.120375,10.5200428 C9.41034375,10.7281901 9.65128125,10.8963914 9.843,11.0246931 C10.0348594,11.1529483 10.2667969,11.2968285 10.5390469,11.4561012 C10.8112031,11.6152344 11.06775,11.734933 11.3086406,11.8141741 C11.5495781,11.8940662 11.7726094,11.9336403 11.9777812,11.9336403 L11.9912344,11.9336403 L12.0047344,11.9336403 C12.2099062,11.9336403 12.4330312,11.8940197 12.6739687,11.8141741 C12.9147656,11.734933 13.1715469,11.6150949 13.4434687,11.4561012 C13.7155312,11.2966425 13.9474687,11.1529018 14.1393281,11.0246931 C14.3311875,10.8963914 14.5719375,10.7281901 14.862,10.5200428 C15.151875,10.311849 15.341625,10.1770833 15.4308281,10.1150019 C16.2515156,9.54864211 18.3394687,8.11025856 21.6940312,5.7999907 C22.3453125,5.34877232 22.8894375,4.80431548 23.3265469,4.16699219 C23.7639844,3.52994792 23.9824687,2.86165365 23.9824687,2.1624814 C23.9824687,1.57821801 23.7704531,1.0780785 23.3466094,0.662109375 C22.9228125,0.246047247 22.420875,0.0381324405 21.841125,0.0381324405 L2.14120312,0.0381324405 C1.45425,0.0381324405 0.92559375,0.268229167 0.555328125,0.728422619 C0.185109375,1.18870908 0,1.7640439 0,2.45438058 C0,3.01199777 0.2454375,3.61625744 0.736078125,4.26678757 C1.22667187,4.91736421 1.74876562,5.42857143 2.30184375,5.80026972 Z" id="Shape"></path>
                    <path d="M22.644,8.17313058 C19.717875,10.1379278 17.496,11.6648996 15.9794531,12.7537202 C15.4709062,13.1253255 15.0583594,13.4154111 14.7415312,13.6232794 C14.4247031,13.8312872 14.0033437,14.0437128 13.4768437,14.2604632 C12.9505312,14.4775391 12.4600312,14.5857515 12.0049219,14.5857515 L11.9912812,14.5857515 L11.9778281,14.5857515 C11.5228125,14.5857515 11.0320312,14.4775391 10.5057187,14.2604632 C9.97940625,14.0437128 9.55776562,13.8312872 9.24103125,13.6232794 C8.92439062,13.4154111 8.51170312,13.1253255 8.00320312,12.7537202 C6.79865625,11.8775112 4.5815625,10.3504464 1.35182812,8.17313058 C0.843140625,7.83700707 0.392578125,7.45172991 0,7.01808966 L0,17.5596168 C0,18.1441592 0.209578125,18.6440197 0.62896875,19.0600353 C1.04826562,19.4761905 1.55245312,19.6841983 2.14134375,19.6841983 L21.8413125,19.6841983 C22.4300625,19.6841983 22.9342031,19.4761905 23.3535469,19.0600353 C23.7730312,18.6438802 23.9825156,18.1442057 23.9825156,17.5596168 L23.9825156,7.01808966 C23.5987969,7.44275484 23.1528281,7.82803199 22.644,8.17313058 Z" id="Shape"></path>
                </g>
            </g>
        </g>
    </g>
</svg>