<?xml version="1.0" encoding="UTF-8"?>
<svg width="11px" height="20px" viewBox="0 0 11 20" version="1.1" xmlns="http://www.w3.org/2000/svg" xmlns:xlink="http://www.w3.org/1999/xlink">
    <!-- Generator: Sketch 47.1 (45422) - http://www.bohemiancoding.com/sketch -->
    <title>facebook-logo</title>
    <desc>Created with Sketch.</desc>
    <defs></defs>
    <g id="Page-1" stroke="none" stroke-width="1" fill="none" fill-rule="evenodd">
        <g id="Homepage" transform="translate(-1289.000000, -52.000000)" fill-rule="nonzero" fill="#FFFFFF">
            <g id="facebook-logo" transform="translate(1289.000000, 52.000000)">
                <path d="M10.3825483,0.00414509932 L7.79911511,0 C4.89671656,0 3.02105912,1.92436236 3.02105912,4.90282348 L3.02105912,7.16335339 L0.423532627,7.16335339 C0.199075498,7.16335339 0.0173128931,7.34532325 0.0173128931,7.56978038 L0.0173128931,10.8450306 C0.0173128931,11.0694877 0.199282753,11.2512503 0.423532627,11.2512503 L3.02105912,11.2512503 L3.02105912,19.5157494 C3.02105912,19.7402065 3.20282172,19.9219691 3.42727885,19.9219691 L6.81631206,19.9219691 C7.04076918,19.9219691 7.22253179,19.7399992 7.22253179,19.5157494 L7.22253179,11.2512503 L10.2596461,11.2512503 C10.4841032,11.2512503 10.6658658,11.0694877 10.6658658,10.8450306 L10.6671093,7.56978038 C10.6671093,7.4620078 10.6242075,7.35879483 10.548145,7.282525 C10.4720824,7.20625517 10.3684549,7.16335339 10.2606823,7.16335339 L7.22253179,7.16335339 L7.22253179,5.24707398 C7.22253179,4.32603291 7.4420148,3.8584657 8.6418138,3.8584657 L10.3821337,3.85784394 C10.6063836,3.85784394 10.7881462,3.67587408 10.7881462,3.45162421 L10.7881462,0.410364833 C10.7881462,0.186322215 10.6065909,0.00455960925 10.3825483,0.00414509932 Z" id="Shape"></path>
            </g>
        </g>
    </g>
</svg>