<?xml version="1.0" encoding="UTF-8"?>
<svg width="40px" height="22px" viewBox="0 0 40 22" version="1.1" xmlns="http://www.w3.org/2000/svg" xmlns:xlink="http://www.w3.org/1999/xlink">
    <!-- Generator: Sketch 47.1 (45422) - http://www.bohemiancoding.com/sketch -->
    <title>type</title>
    <desc>Created with Sketch.</desc>
    <defs></defs>
    <g id="Page-1" stroke="none" stroke-width="1" fill="none" fill-rule="evenodd">
        <g id="Homepage" transform="translate(-882.000000, -598.000000)" fill="#FFFFFF">
            <g id="type" transform="translate(882.000000, 598.000000)">
                <path d="M17.907,21 L16.515,17.404 L7.728,17.404 L6.307,21 L0.855,21 L9.584,0.671 L15.036,0.671 L23.562,21 L17.907,21 Z M9.323,13.344 L14.949,13.344 L12.165,6.094 L9.323,13.344 Z M37.511,6.6015 C38.7096727,7.59717165 39.3186666,8.99399101 39.338,10.792 L39.338,21 L34.263,21 L34.263,19.231 C33.2189948,20.5650067 31.6433439,21.232 29.536,21.232 C27.873325,21.232 26.5635048,20.7825045 25.6065,19.8835 C24.6494952,18.9844955 24.171,17.8003407 24.171,16.331 C24.171,14.8423259 24.6881615,13.6823375 25.7225,12.851 C26.7568385,12.0196625 28.240657,11.5943334 30.174,11.575 L34.263,11.575 L34.263,11.401 C34.263,10.6469962 34.0068359,10.067002 33.4945,9.661 C32.9821641,9.25499797 32.2426715,9.052 31.276,9.052 C30.6186634,9.052 29.8791708,9.15833227 29.0575,9.371 C28.2358292,9.58366773 27.4093375,9.89299797 26.578,10.299 L25.157,6.819 C26.4330064,6.2389971 27.6558275,5.80883474 28.8255,5.5285 C29.9951725,5.24816527 31.208327,5.108 32.465,5.108 C34.6303442,5.108 36.3123273,5.60582835 37.511,6.6015 Z M33.161,17.1575 C33.7410029,16.7804981 34.1083326,16.2923363 34.263,15.693 L34.263,14.33 L31.189,14.33 C29.7389927,14.33 29.014,14.8713279 29.014,15.954 C29.014,16.495336 29.2024981,16.9254984 29.5795,17.2445 C29.9565019,17.5635016 30.4736634,17.723 31.131,17.723 C31.9043372,17.723 32.5809971,17.5345019 33.161,17.1575 Z" id="Aa"></path>
            </g>
        </g>
    </g>
</svg>